<svg width="11" height="11" viewBox="0 0 11 11" fill="none" xmlns="http://www.w3.org/2000/svg">
<g clip-path="url(#clip0_130_56)">
<path opacity="0.5" d="M7.7915 4.12598C8.78838 4.13148 9.3283 4.17593 9.6803 4.52793C10.0832 4.93081 10.0832 5.57889 10.0832 6.87506V7.33339C10.0832 8.63002 10.0832 9.2781 9.6803 9.68098C9.27788 10.0834 8.62934 10.0834 7.33317 10.0834H3.6665C2.37034 10.0834 1.7218 10.0834 1.31938 9.68098C0.916504 9.27764 0.916504 8.63002 0.916504 7.33339V6.87506C0.916504 5.57889 0.916504 4.93081 1.31938 4.52793C1.67138 4.17593 2.2113 4.13148 3.20817 4.12598" stroke="#01540A" stroke-linecap="round"/>
<path d="M5.5 0.916748V6.87508M5.5 6.87508L4.125 5.27091M5.5 6.87508L6.875 5.27091" stroke="#01540A" stroke-linecap="round" stroke-linejoin="round"/>
</g>
<defs>
<clipPath id="clip0_130_56">
<rect width="11" height="11" fill="white"/>
</clipPath>
</defs>
</svg>
