<svg width="10" height="20" viewBox="0 0 10 20" fill="none" xmlns="http://www.w3.org/2000/svg">
<path d="M4.54038 19.4596C4.79422 19.7135 5.20578 19.7135 5.45962 19.4596L9.59619 15.323C9.85003 15.0692 9.85003 14.6576 9.59619 14.4038C9.34235 14.15 8.9308 14.15 8.67696 14.4038L5 18.0808L1.32304 14.4038C1.0692 14.15 0.657647 14.15 0.403806 14.4038C0.149965 14.6576 0.149965 15.0692 0.403806 15.323L4.54038 19.4596ZM5.45962 0.540381C5.20578 0.28654 4.79422 0.28654 4.54038 0.540381L0.403806 4.67696C0.149965 4.9308 0.149965 5.34235 0.403806 5.59619C0.657647 5.85003 1.0692 5.85003 1.32304 5.59619L5 1.91924L8.67696 5.59619C8.9308 5.85003 9.34235 5.85003 9.59619 5.59619C9.85003 5.34235 9.85003 4.9308 9.59619 4.67696L5.45962 0.540381ZM5.65 19L5.65 1H4.35L4.35 19H5.65Z" fill="white"/>
</svg>
