<svg width="28" height="28" viewBox="0 0 28 28" fill="none" xmlns="http://www.w3.org/2000/svg">
<rect width="28" height="28" rx="8" fill="#333232"/>
<path d="M5.00006 15.2706L5.0426 8.72588C5.0503 7.54117 5.86062 6.52625 6.97986 6.2995L13.1628 5.04684C14.6487 4.74582 16.0274 5.9341 16.0173 7.50685L15.9747 14.0515C15.967 15.2362 15.1567 16.2512 14.0375 16.478L7.85444 17.7306C6.36862 18.0316 4.98983 16.8433 5.00006 15.2706Z" fill="white" fill-opacity="0.2"/>
<path d="M8.02935 17.88L8.07189 11.3353C8.0796 10.1505 8.88992 9.13563 10.0092 8.90888L16.1922 7.65622C17.678 7.3552 19.0568 8.54348 19.0465 10.1162L19.004 16.6609C18.9963 17.8457 18.1859 18.8606 17.0667 19.0873L10.8837 20.34C9.39791 20.641 8.01913 19.4527 8.02935 17.88Z" fill="white" fill-opacity="0.5"/>
<path d="M11.0586 20.4933L11.1012 13.9486C11.1089 12.7638 11.9192 11.7489 13.0384 11.5221L19.2214 10.2695C20.7073 9.96847 22.0861 11.1568 22.0759 12.7295L22.0333 19.2742C22.0256 20.4589 21.2153 21.4738 20.0961 21.7006L13.9131 22.9532C12.4272 23.2543 11.0485 22.066 11.0586 20.4933Z" fill="white" fill-opacity="0.8"/>
</svg>
