<svg width="28" height="28" viewBox="0 0 28 28" fill="none" xmlns="http://www.w3.org/2000/svg">
  <rect width="28" height="28" rx="8" fill="#FE4588"/>
  <path d="M6 13C6 12.2044 6.31607 11.4413 6.87868 10.8787C7.44129 10.3161 8.20435 10 9 10H19C19.7956 10 20.5587 10.3161 21.1213 10.8787C21.6839 11.4413 22 12.2044 22 13V16C22 16.7956 21.6839 17.5587 21.1213 18.1213C20.5587 18.6839 19.7956 19 19 19H9C8.20435 19 7.44129 18.6839 6.87868 18.1213C6.31607 17.5587 6 16.7956 6 16V13ZM13 14.5C13 14.6326 13.0527 14.7598 13.1464 14.8536C13.2402 14.9473 13.3674 15 13.5 15H18C18.1326 15 18.2598 14.9473 18.3536 14.8536C18.4473 14.7598 18.5 14.6326 18.5 14.5C18.5 14.3674 18.4473 14.2402 18.3536 14.1464C18.2598 14.0527 18.1326 14 18 14H13.5C13.3674 14 13.2402 14.0527 13.1464 14.1464C13.0527 14.2402 13 14.3674 13 14.5ZM12 14.5C12 14.1022 11.842 13.7206 11.5607 13.4393C11.2794 13.158 10.8978 13 10.5 13C10.1022 13 9.72064 13.158 9.43934 13.4393C9.15804 13.7206 9 14.1022 9 14.5C9 14.8978 9.15804 15.2794 9.43934 15.5607C9.72064 15.842 10.1022 16 10.5 16C10.8978 16 11.2794 15.842 11.5607 15.5607C11.842 15.2794 12 14.8978 12 14.5Z" fill="white"/>
</svg>
