<svg width="28" height="28" viewBox="0 0 28 28" fill="none" xmlns="http://www.w3.org/2000/svg">
<rect width="28" height="28" rx="8" fill="#343C43"/>
<path d="M14 5C9.041 5 5 9.041 5 14C5 18.959 9.041 23 14 23C18.959 23 23 18.959 23 14C23 9.041 18.959 5 14 5ZM5.909 14C5.909 12.83 6.161 11.714 6.611 10.706L10.472 21.281C7.772 19.967 5.909 17.204 5.909 14ZM14 22.091C13.208 22.091 12.443 21.974 11.714 21.758L14.144 14.702L16.628 21.515C16.646 21.551 16.664 21.596 16.682 21.623C15.845 21.929 14.945 22.091 14 22.091ZM15.116 10.202C15.602 10.175 16.043 10.121 16.043 10.121C16.475 10.067 16.43 9.428 15.989 9.455C15.989 9.455 14.675 9.554 13.829 9.554C13.037 9.554 11.696 9.455 11.696 9.455C11.264 9.437 11.21 10.103 11.651 10.13C11.651 10.13 12.065 10.184 12.497 10.211L13.757 13.667L11.984 18.977L9.041 10.202C9.527 10.184 9.968 10.13 9.968 10.13C10.4 10.076 10.355 9.437 9.914 9.464C9.914 9.464 8.6 9.563 7.754 9.563C7.601 9.563 7.421 9.563 7.232 9.554C8.69 7.358 11.174 5.909 14 5.909C16.106 5.909 18.023 6.71 19.463 8.033C19.427 8.033 19.391 8.024 19.355 8.024C18.563 8.024 17.996 8.717 17.996 9.464C17.996 10.13 18.383 10.697 18.788 11.363C19.094 11.903 19.454 12.596 19.454 13.595C19.454 14.288 19.184 15.089 18.842 16.214L18.032 18.914L15.116 10.202ZM21.101 10.121C22.1119 11.9711 22.3606 14.1427 21.794 16.1734C21.2275 18.2041 19.8906 19.9334 18.068 20.993L20.543 13.847C21.002 12.695 21.155 11.768 21.155 10.949C21.155 10.652 21.137 10.373 21.101 10.121Z" fill="white"/>
</svg>
