<svg width="28" height="28" viewBox="0 0 28 28" fill="none" xmlns="http://www.w3.org/2000/svg">
<rect width="28" height="28" rx="8" fill="#45DDDC"/>
<path d="M6.91038 19.9246C6.65244 19.9246 6.43638 19.8372 6.26219 19.6624C6.088 19.4876 6.00061 19.2716 6 19.0142C6 18.7563 6.0874 18.5402 6.26219 18.366C6.43698 18.1918 6.65305 18.1044 6.91038 18.1038H16.9246C17.1826 18.1038 17.3989 18.1912 17.5737 18.366C17.7485 18.5408 17.8356 18.7569 17.835 19.0142C17.835 19.2722 17.7476 19.4885 17.5728 19.6633C17.398 19.8381 17.1819 19.9252 16.9246 19.9246H6.91038ZM20.4751 18.377L17.1977 15.0996C17.0156 14.9175 16.9246 14.7051 16.9246 14.4623C16.9246 14.2195 17.0156 14.0071 17.1977 13.825L20.4751 10.5477C20.642 10.3807 20.8544 10.2973 21.1124 10.2973C21.3703 10.2973 21.5827 10.3807 21.7496 10.5477C21.9165 10.7146 22 10.927 22 11.1849C22 11.4429 21.9165 11.6553 21.7496 11.8222L19.1095 14.4623L21.7496 17.1024C21.9165 17.2693 22 17.4817 22 17.7397C22 17.9976 21.9165 18.2101 21.7496 18.377C21.5827 18.5439 21.3703 18.6273 21.1124 18.6273C20.8544 18.6273 20.642 18.5439 20.4751 18.377ZM6.91038 15.3727C6.65244 15.3727 6.43638 15.2853 6.26219 15.1105C6.088 14.9357 6.00061 14.7196 6 14.4623C6 14.2044 6.0874 13.9883 6.26219 13.8141C6.43698 13.6399 6.65305 13.5525 6.91038 13.5519H14.1935C14.4514 13.5519 14.6678 13.6393 14.8426 13.8141C15.0174 13.9889 15.1044 14.205 15.1038 14.4623C15.1038 14.7202 15.0164 14.9366 14.8416 15.1114C14.6669 15.2862 14.4508 15.3733 14.1935 15.3727H6.91038ZM6.91038 10.8208C6.65244 10.8208 6.43638 10.7334 6.26219 10.5586C6.088 10.3838 6.00061 10.1677 6 9.91038C6 9.65244 6.0874 9.43638 6.26219 9.26219C6.43698 9.088 6.65305 9.00061 6.91038 9H16.9246C17.1826 9 17.3989 9.0874 17.5737 9.26219C17.7485 9.43698 17.8356 9.65305 17.835 9.91038C17.835 10.1683 17.7476 10.3847 17.5728 10.5595C17.398 10.7343 17.1819 10.8214 16.9246 10.8208H6.91038Z" fill="white"/>
</svg>
