<svg width="26" height="22" viewBox="0 0 26 22" fill="none" xmlns="http://www.w3.org/2000/svg">
<path d="M5.4873 10.4789C5.12832 10.4789 4.8373 10.7699 4.8373 11.1289V16.9789C4.8373 17.3379 5.12832 17.6289 5.4873 17.6289C5.84629 17.6289 6.1373 17.3379 6.1373 16.9789L6.1373 11.7789H11.3373C11.6963 11.7789 11.9873 11.4879 11.9873 11.1289C11.9873 10.7699 11.6963 10.4789 11.3373 10.4789H5.4873ZM12.9469 17.6693L5.94692 10.6693L5.02769 11.5885L12.0277 18.5885L12.9469 17.6693Z" fill="white"/>
<path d="M21.3965 11.4029C21.7555 11.4029 22.0465 11.1119 22.0465 10.7529V4.90293C22.0465 4.54394 21.7555 4.25293 21.3965 4.25293C21.0375 4.25293 20.7465 4.54394 20.7465 4.90293V10.1029H15.5465C15.1875 10.1029 14.8965 10.3939 14.8965 10.7529C14.8965 11.1119 15.1875 11.4029 15.5465 11.4029L21.3965 11.4029ZM21.8561 10.2933L13.8561 2.29331L12.9369 3.21255L20.9369 11.2125L21.8561 10.2933Z" fill="white"/>
</svg>
