<svg width="28" height="28" viewBox="0 0 28 28" fill="none" xmlns="http://www.w3.org/2000/svg">
<rect width="28" height="28" rx="8" fill="#333232"/>
<path d="M20.2601 11.9646C19.9369 11.9365 19.3186 12.1051 19.0376 13.4822C19.0376 14.3112 19.2343 14.8171 19.5435 14.9998C20.1196 15.1684 20.794 14.3955 20.794 13.5665C20.8221 12.9904 20.8502 12.2738 20.2601 11.9646Z" fill="white"/>
<path d="M21.3419 9H6.64403C5.73068 9 5 9.73068 5 10.63V16.2506C5 17.1499 5.73068 17.8946 6.64403 17.8946H21.356C22.2553 17.8946 23 17.1639 23 16.2506V10.63C22.9859 9.73068 22.2553 9 21.3419 9ZM11.1827 16.6159C11.1827 16.6159 10.2131 15.3372 9.98829 14.3677C9.76347 13.4122 9.70726 13.8478 9.70726 13.8478C9.70726 13.8478 8.93443 15.5902 8.13349 16.7002C7.33255 17.8103 6.93911 16.1522 6.93911 16.1522C6.65808 15.815 5.85714 10.911 5.85714 10.911C6.30679 9.66042 7.07963 10.6862 7.07963 10.6862L7.85246 14.6768C7.85246 14.6768 9.04684 12.2319 9.45433 11.5995C9.84778 10.9672 10.5363 11.1499 10.5925 11.7963C10.6487 12.4567 11.3091 14.2412 11.3091 14.2412C11.3653 12.3583 12.1382 10.5597 12.2506 10.2787C12.363 9.99766 13.6136 9.64637 13.3888 10.8548C12.8407 12.1897 12.3068 15.0141 12.4473 16.5597C12.0679 17.726 11.1827 16.6159 11.1827 16.6159ZM16.2272 15.9836C15.8618 16.1522 14.4988 17.0937 13.5293 14.9859C12.9251 12.8642 14.274 11.3044 14.274 11.3044C14.274 11.3044 16.0304 9.80094 17.2248 11.7963C18.1944 13.9883 16.5925 15.815 16.2272 15.9836ZM20.6955 15.9836C20.3302 16.1522 18.9672 17.0937 17.9977 14.9859C17.3934 12.8642 18.7424 11.3044 18.7424 11.3044C18.7424 11.3044 20.5129 9.78689 21.7073 11.7822C22.6768 13.9883 21.0609 15.815 20.6955 15.9836Z" fill="white"/>
<path d="M15.7777 11.9646C15.4545 11.9365 14.8363 12.1051 14.5552 13.4822C14.5552 14.3112 14.7519 14.8171 15.0611 14.9998C15.6372 15.1684 16.3117 14.3955 16.3117 13.5665C16.3538 12.9904 16.3819 12.2738 15.7777 11.9646ZM13.6138 17.8944L16.7473 19.7351L16.0868 17.8944L14.2882 17.3885L13.6138 17.8944Z" fill="white"/>
</svg>
