<svg width="28" height="28" viewBox="0 0 28 28" fill="none" xmlns="http://www.w3.org/2000/svg">
<rect width="28" height="28" rx="8" fill="#FF005C"/>
<path fill-rule="evenodd" clip-rule="evenodd" d="M16.75 8.255V8.245C16.753 8.215 16.763 8.088 16.389 7.895C15.953 7.668 15.216 7.5 14.25 7.5C13.283 7.5 12.547 7.669 12.112 7.894C11.737 8.088 11.747 8.214 11.75 8.245V8.255C11.747 8.285 11.737 8.412 12.112 8.605C12.547 8.832 13.283 9 14.25 9C15.217 9 15.953 8.831 16.389 8.606C16.763 8.412 16.753 8.286 16.75 8.255ZM18.25 8.25C18.25 8.988 17.817 9.544 17.114 9.919L17.939 12.229C19.492 12.709 20.5 13.549 20.5 14.749C20.5 16.603 18.098 17.597 15 17.734V21C15 21.1989 14.921 21.3897 14.7803 21.5303C14.6397 21.671 14.4489 21.75 14.25 21.75C14.0511 21.75 13.8603 21.671 13.7197 21.5303C13.579 21.3897 13.5 21.1989 13.5 21V17.734C10.402 17.598 8 16.603 8 14.75C8 13.55 9.008 12.71 10.561 12.23L11.386 9.919C10.683 9.544 10.25 8.988 10.25 8.25C10.25 6.75 12.04 6 14.25 6C16.46 6 18.25 6.75 18.25 8.25Z" fill="white"/>
</svg>
