<svg width="28" height="28" viewBox="0 0 28 28" fill="none" xmlns="http://www.w3.org/2000/svg">
<rect width="28" height="28" rx="8" fill="#343C43"/>
<rect x="6" y="5.34912" width="2.74036" height="2.74036" fill="white"/>
<rect x="10.3755" y="5.27832" width="2.34257" height="2.34257" fill="white"/>
<rect x="14.354" y="5.771" width="1.90057" height="1.90057" fill="white"/>
<rect x="17.8901" y="6.65771" width="1.01659" height="1.01659" fill="white"/>
<rect x="17.8901" y="9.76904" width="1.45858" height="1.45858" fill="white"/>
<rect x="17.8901" y="13.5264" width="1.45858" height="1.45858" fill="white"/>
<rect x="20.9834" y="13.7471" width="1.01659" height="1.01659" fill="white"/>
<rect x="20.9834" y="9.99072" width="1.01659" height="1.01659" fill="white"/>
<rect x="20.9834" y="17.5044" width="1.01659" height="1.01659" fill="white"/>
<rect x="17.8901" y="17.2827" width="1.45858" height="1.45858" fill="white"/>
<rect x="17.8901" y="20.791" width="1.01659" height="1.01659" fill="white"/>
<rect x="14.354" y="9.54932" width="1.90057" height="1.90057" fill="white"/>
<rect x="14.354" y="13.3042" width="1.90057" height="1.90057" fill="white"/>
<rect x="14.354" y="17.0615" width="1.90057" height="1.90057" fill="white"/>
<rect x="14.354" y="20.791" width="1.90057" height="1.90057" fill="white"/>
<rect x="10.3755" y="9.32812" width="2.34257" height="2.34257" fill="white"/>
<rect x="10.3755" y="13.0845" width="2.34257" height="2.34257" fill="white"/>
<rect x="10.3755" y="16.8408" width="2.34257" height="2.34257" fill="white"/>
<rect x="10.3755" y="20.772" width="2.34257" height="2.34257" fill="white"/>
<rect x="6" y="9.10645" width="2.74036" height="2.74036" fill="white"/>
<rect x="6" y="12.8638" width="2.74036" height="2.74036" fill="white"/>
<rect x="6" y="16.6211" width="2.74036" height="2.74036" fill="white"/>
<rect x="6" y="20.3677" width="2.74036" height="2.74036" fill="white"/>
</svg>
