<svg width="28" height="28" viewBox="0 0 28 28" fill="none" xmlns="http://www.w3.org/2000/svg">
<rect width="28" height="28" rx="8" fill="#343C43"/>
<path d="M10.7334 8.86654C10.7334 7.5776 11.7778 6.5332 13.0667 6.5332H19.1334C20.4223 6.5332 21.4667 7.5776 21.4667 8.86654V14.9332C21.4667 16.2221 20.4223 17.2665 19.1334 17.2665H13.0667C11.7778 17.2665 10.7334 16.2221 10.7334 14.9332V8.86654Z" fill="white"/>
<path opacity="0.5" d="M7.93356 11.6665C6.90223 11.6665 6.06689 12.5018 6.06689 13.5332V19.1332C6.06689 20.6797 7.32036 21.9332 8.86689 21.9332H14.4669C15.4982 21.9332 16.3336 21.0978 16.3336 20.0665V19.5998C16.3336 19.0846 15.9154 18.6665 15.4002 18.6665H12.6002C10.7961 18.6665 9.33356 17.204 9.33356 15.3998V12.5998C9.33356 12.0846 8.91543 11.6665 8.40023 11.6665H7.93356Z" fill="white" fill-opacity="0.3"/>
</svg>
