<svg width="28" height="28" viewBox="0 0 28 28" fill="none" xmlns="http://www.w3.org/2000/svg">
<rect width="28" height="28" rx="8" fill="#FFBA01"/>
<g clip-path="url(#clip0_376_107)">
<path d="M3.85207 18.2398C4.45114 13.3405 6.94827 11.769 9.18422 10.3766C11.4674 8.95415 13.4422 7.70829 13.2046 3.02734C12.1631 3.10177 11.1377 3.32505 10.1596 3.69036C10.2589 7.40531 8.49907 8.50705 6.79137 9.57093C4.98775 10.6943 3.28398 11.7557 3.17725 15.9443C3.31988 16.7416 3.54663 17.5114 3.85207 18.2398Z" fill="black"/>
<path d="M6.27095 8.73597C7.86258 7.7439 9.14976 6.93235 9.17878 4.11306C6.28178 5.53303 4.09796 8.18952 3.31641 11.3905C4.11862 10.0777 5.23364 9.38177 6.27095 8.73597ZM6.56164 22.0951C6.94922 16.8736 9.24026 15.0513 11.4619 13.2871C13.8755 11.3708 16.1562 9.5549 16.0278 3.18444C15.4202 3.07145 14.8042 3.00975 14.1863 3C14.4411 8.24362 12.0384 9.75754 9.70407 11.2115C7.33925 12.6845 4.89869 14.2137 4.7108 19.8784C5.22835 20.6949 5.85058 21.4402 6.56164 22.0951ZM18.342 16.3542C20.5464 14.5851 22.626 12.901 22.5148 7.03023C21.9205 6.30684 21.237 5.66164 20.4805 5.11004C20.4495 11.5238 17.9563 13.5286 15.5399 15.4674C13.2656 17.2927 11.1186 19.0196 10.9612 24.5741C11.8682 24.8347 12.8219 24.9828 13.8076 25.0005C14.0668 19.8002 16.2363 18.0447 18.342 16.3542ZM22.0367 18.6487C20.4579 19.6108 19.0886 20.4543 18.9292 23.8373C21.9566 22.316 24.1881 19.4396 24.8236 16.007C24.1143 17.3812 23.0386 18.0383 22.0367 18.6487Z" fill="black"/>
<path d="M21.5251 17.809C23.2161 16.7781 24.8141 15.8052 24.6193 11.2817L24.67 11.2797C24.4124 10.2724 24.0123 9.30693 23.4817 8.41272C23.249 13.6608 21.0741 15.4236 18.9586 17.1214C16.9455 18.7357 15.0464 20.2737 14.7951 24.9729C15.8682 24.8969 16.9242 24.6633 17.9292 24.2793C17.9892 19.9638 19.8671 18.8193 21.5251 17.809ZM14.9249 14.7001C17.3424 12.7607 19.6265 10.9236 19.4928 4.4666C18.7138 4.01641 17.8824 3.66389 17.0173 3.41699C17.0876 10.0767 14.5398 12.0991 12.0737 14.0572C9.82788 15.8402 7.7085 17.5341 7.50635 22.8722C8.27288 23.4352 9.1093 23.8963 9.99462 24.2439C10.2376 18.477 12.6172 16.5519 14.9249 14.7001Z" fill="black"/>
</g>
<defs>
<clipPath id="clip0_376_107">
<rect width="22" height="22" fill="white" transform="translate(3 3)"/>
</clipPath>
</defs>
</svg>
