<svg width="28" height="28" viewBox="0 0 28 28" fill="none" xmlns="http://www.w3.org/2000/svg">
<rect width="28" height="28" rx="8" fill="white"/>
<path d="M5.00006 15.2706L5.0426 8.72588C5.0503 7.54117 5.86062 6.52625 6.97986 6.2995L13.1628 5.04684C14.6487 4.74582 16.0274 5.9341 16.0173 7.50685L15.9747 14.0515C15.967 15.2362 15.1567 16.2512 14.0375 16.478L7.85444 17.7306C6.36862 18.0316 4.98983 16.8433 5.00006 15.2706Z" fill="black" fill-opacity="0.2"/>
<path d="M8.02935 17.8805L8.07189 11.3357C8.0796 10.151 8.88992 9.13612 10.0092 8.90936L16.1922 7.6567C17.678 7.35569 19.0568 8.54397 19.0465 10.1167L19.004 16.6614C18.9963 17.8461 18.1859 18.8611 17.0667 19.0878L10.8837 20.3405C9.39791 20.6415 8.01913 19.4532 8.02935 17.8805Z" fill="black" fill-opacity="0.5"/>
<path d="M11.0586 20.4938L11.1012 13.9491C11.1089 12.7643 11.9192 11.7494 13.0384 11.5226L19.2214 10.27C20.7073 9.96896 22.0861 11.1572 22.0759 12.73L22.0333 19.2747C22.0256 20.4594 21.2153 21.4743 20.0961 21.7011L13.9131 22.9537C12.4272 23.2547 11.0485 22.0665 11.0586 20.4938Z" fill="black" fill-opacity="0.8"/>
</svg>
