<svg width="20" height="10" viewBox="0 0 20 10" fill="none" xmlns="http://www.w3.org/2000/svg">
<path d="M0.540381 4.54038C0.28654 4.79422 0.28654 5.20578 0.540381 5.45962L4.67695 9.59619C4.9308 9.85003 5.34235 9.85004 5.59619 9.59619C5.85003 9.34235 5.85003 8.9308 5.59619 8.67696L1.91924 5L5.59619 1.32305C5.85003 1.0692 5.85004 0.657647 5.59619 0.403806C5.34235 0.149966 4.9308 0.149966 4.67696 0.403806L0.540381 4.54038ZM19.4596 5.45962C19.7135 5.20578 19.7135 4.79422 19.4596 4.54038L15.323 0.403807C15.0692 0.149966 14.6576 0.149966 14.4038 0.403807C14.15 0.657648 14.15 1.06921 14.4038 1.32305L18.0808 5L14.4038 8.67696C14.15 8.9308 14.15 9.34235 14.4038 9.59619C14.6576 9.85004 15.0692 9.85004 15.323 9.5962L19.4596 5.45962ZM1 5.65L19 5.65L19 4.35L1 4.35L1 5.65Z" fill="white"/>
</svg>
